<?xml version="1.0" encoding="UTF-8" standalone="no"?>
<svg
   xmlns:dc="http://purl.org/dc/elements/1.1/"
   xmlns:cc="http://creativecommons.org/ns#"
   xmlns:rdf="http://www.w3.org/1999/02/22-rdf-syntax-ns#"
   xmlns:svg="http://www.w3.org/2000/svg"
   xmlns="http://www.w3.org/2000/svg"
   xmlns:sodipodi="http://sodipodi.sourceforge.net/DTD/sodipodi-0.dtd"
   xmlns:inkscape="http://www.inkscape.org/namespaces/inkscape"
   height="436.597"
   id="svg2905"
   inkscape:version="0.46"
   sodipodi:docbase="C:\Dokumente und Einstellungen\ulfl\Eigene Dateien"
   sodipodi:docname="aeroway_terminal.svg"
   sodipodi:version="0.32"
   width="440.475"
   inkscape:output_extension="org.inkscape.output.svg.inkscape">
  <metadata
     id="metadata3">
    <rdf:RDF>
      <cc:Work
         rdf:about="">
        <dc:title>AIGA_Symbol_Signs</dc:title>
        <dc:description>EPS converted from  http://aiga.org</dc:description>
        <dc:subject>
          <rdf:Bag>
            <rdf:li>symbol</rdf:li>
            <rdf:li>mapsym</rdf:li>
          </rdf:Bag>
        </dc:subject>
        <dc:publisher>
          <cc:Agent
             rdf:about="http://www.openclipart.org/">
            <dc:title>Open Clip Art Library</dc:title>
          </cc:Agent>
        </dc:publisher>
        <dc:creator>
          <cc:Agent>
            <dc:title>Jean-Victor Balin</dc:title>
          </cc:Agent>
        </dc:creator>
        <dc:rights>
          <cc:Agent>
            <dc:title>Jean-Victor Balin</dc:title>
          </cc:Agent>
        </dc:rights>
        <dc:date />
        <dc:format>image/svg+xml</dc:format>
        <dc:type
           rdf:resource="http://purl.org/dc/dcmitype/StillImage" />
        <cc:license
           rdf:resource="http://web.resource.org/cc/PublicDomain" />
        <dc:language>en</dc:language>
      </cc:Work>
      <cc:License
         rdf:about="http://web.resource.org/cc/PublicDomain">
        <cc:permits
           rdf:resource="http://web.resource.org/cc/Reproduction" />
        <cc:permits
           rdf:resource="http://web.resource.org/cc/Distribution" />
        <cc:permits
           rdf:resource="http://web.resource.org/cc/DerivativeWorks" />
      </cc:License>
    </rdf:RDF>
  </metadata>
  <sodipodi:namedview
     bordercolor="#666666"
     borderopacity="1.0"
     id="base"
     inkscape:current-layer="svg2905"
     inkscape:cx="-104.72912"
     inkscape:cy="417.84947"
     inkscape:pageopacity="0.0"
     inkscape:pageshadow="2"
     inkscape:window-height="726"
     inkscape:window-width="797"
     inkscape:window-x="474"
     inkscape:window-y="225"
     inkscape:zoom="0.43415836"
     pagecolor="#ffffff"
     showgrid="false" />
  <defs
     id="defs2907">
    <inkscape:perspective
       sodipodi:type="inkscape:persp3d"
       inkscape:vp_x="0 : 218.29849 : 1"
       inkscape:vp_y="0 : 1000 : 0"
       inkscape:vp_z="440.47501 : 218.29849 : 1"
       inkscape:persp3d-origin="220.2375 : 145.53233 : 1"
       id="perspective3242" />
    <marker
       id="ArrowEnd"
       markerHeight="3"
       markerUnits="strokeWidth"
       markerWidth="4"
       orient="auto"
       refX="0"
       refY="5"
       viewBox="0 0 10 10">
      <path
         d="M 0 0 L 10 5 L 0 10 z"
         id="path2910" />
    </marker>
    <marker
       id="ArrowStart"
       markerHeight="3"
       markerUnits="strokeWidth"
       markerWidth="4"
       orient="auto"
       refX="10"
       refY="5"
       viewBox="0 0 10 10">
      <path
         d="M 10 0 L 0 5 L 10 10 z"
         id="path2913" />
    </marker>
    <marker
       viewBox="0 0 10 10"
       refY="5"
       refX="10"
       orient="auto"
       markerWidth="4"
       markerUnits="strokeWidth"
       markerHeight="3"
       id="marker2234">
      <path
         id="path2938"
         d="M 10 0 L 0 5 L 10 10 z" />
    </marker>
    <marker
       viewBox="0 0 10 10"
       refY="5"
       refX="0"
       orient="auto"
       markerWidth="4"
       markerUnits="strokeWidth"
       markerHeight="3"
       id="marker2231">
      <path
         id="path2935"
         d="M 0 0 L 10 5 L 0 10 z" />
    </marker>
  </defs>
  <g
     id="g2915"
     style="fill:#2c94c2;fill-opacity:1"
     transform="matrix(0.4814943,7.6408876e-2,-7.6408876e-2,0.4814943,15.697612,-17.925837)">
    <path
       d="M 430.366,48.7113 C 459.521,19.5583 419.196,-18.5557 390.412,10.2323 L 284.111,116.529 L 40.595,52.1583 L 0,92.7533 L 200.708,198.458 L 119.533,279.631 L 56.426,271.882 L 24.32,303.987 L 95.915,341.631 L 133.558,413.226 L 165.663,381.119 L 158.283,318.381 L 239.458,237.207 L 342.893,436.597 L 383.488,396.002 L 321.861,157.418 L 430.366,48.7113 z "
       id="path2917"
       style="fill:#2c94c2;stroke:none;fill-opacity:1" />
  </g>
  <g
     id="g2940"
     transform="matrix(0.676989,0,0,0.7039546,189.65269,77.070262)">
    <g
       id="g2942">
      <path
         style="fill:#000000;stroke:none"
         id="path2944"
         d="M 170.455,84.5914 C 193.227,84.5914 211.688,66.1304 211.688,43.3564 C 211.688,20.5844 193.227,2.1214 170.455,2.1214 C 147.681,2.1214 129.218,20.5844 129.218,43.3564 C 129.218,66.1304 147.681,84.5914 170.455,84.5914 z " />
      <g
         id="g2946">
        <path
           style="fill:#000000;stroke:none"
           id="path2948"
           d="M 322.785,426.065 L 340.682,426.065 C 353.463,426.065 359.988,416.03 359.988,406.841 C 359.988,406.841 359.988,305.841 359.988,305.341 C 359.988,296.152 352.797,285.999 340.682,285.999 L 322.785,285.999 L 322.785,426.065 z " />
        <path
           style="fill:#000000;stroke:none"
           id="path2950"
           d="M 121.249,95.2924 L 34.3891,6.43341 C 15.2191,-12.7366 -12.7369,15.2174 6.43314,34.3874 L 117.459,147.415 L 117.459,474.086 C 117.459,506.347 164.532,505.399 164.532,474.086 L 164.532,285.994 L 172.423,286.013 L 172.423,474.103 C 172.423,505.416 219.848,506.347 219.848,474.086 L 219.848,159.814 L 228.182,159.814 L 228.182,266.829 L 228.182,267.01 L 228.182,285.999 L 202.041,285.999 L 202.041,426.065 L 313.2,426.065 L 313.2,285.999 L 286.904,285.999 L 286.904,266.829 C 286.904,259.64 282.591,255.806 274.923,255.806 C 274.923,255.806 270.428,255.806 262.76,255.806 L 262.73,255.806 L 262.73,147.004 C 262.73,121.841 241.182,95.2904 212.682,95.2904 L 121.253,95.2904 L 121.249,95.2924 z " />
      </g>
    </g>
    <path
       style="fill:#ffffff;stroke:none"
       id="path2952"
       d="M 275.161,285.999 L 275.161,267.07 L 239.261,267.07 L 239.261,285.999 L 275.161,285.999 z " />
  </g>
</svg>
