<?xml version="1.0" encoding="UTF-8" standalone="no"?>
<svg height="435.06" id="svg2103" inkscape:version="0.41" sodipodi:docbase="/datas/Projs/Cliparts Stocker/tmp/AIGA" sodipodi:docname="AIGA_Bus.svg" sodipodi:version="0.32" width="355.024" xmlns="http://www.w3.org/2000/svg" xmlns:cc="http://web.resource.org/cc/" xmlns:dc="http://purl.org/dc/elements/1.1/" xmlns:inkscape="http://www.inkscape.org/namespaces/inkscape" xmlns:rdf="http://www.w3.org/1999/02/22-rdf-syntax-ns#" xmlns:sodipodi="http://inkscape.sourceforge.net/DTD/sodipodi-0.dtd" xmlns:svg="http://www.w3.org/2000/svg">
  <metadata>
    <rdf:RDF xmlns:cc="http://web.resource.org/cc/" xmlns:dc="http://purl.org/dc/elements/1.1/" xmlns:rdf="http://www.w3.org/1999/02/22-rdf-syntax-ns#">
      <cc:Work rdf:about="">
        <dc:title>AIGA_Symbol_Signs</dc:title>
        <dc:description>EPS converted from  http://aiga.org</dc:description>
        <dc:subject>
          <rdf:Bag>
            <rdf:li>symbol</rdf:li>
            <rdf:li>mapsym</rdf:li>
          </rdf:Bag>
        </dc:subject>
        <dc:publisher>
          <cc:Agent rdf:about="http://www.openclipart.org/">
            <dc:title>Open Clip Art Library</dc:title>
          </cc:Agent>
        </dc:publisher>
        <dc:creator>
          <cc:Agent>
            <dc:title>Jean-Victor Balin</dc:title>
          </cc:Agent>
        </dc:creator>
        <dc:rights>
          <cc:Agent>
            <dc:title>Jean-Victor Balin</dc:title>
          </cc:Agent>
        </dc:rights>
        <dc:date></dc:date>
        <dc:format>image/svg+xml</dc:format>
        <dc:type rdf:resource="http://purl.org/dc/dcmitype/StillImage"/>
        <cc:license rdf:resource="http://web.resource.org/cc/PublicDomain"/>
        <dc:language>en</dc:language>
      </cc:Work>
      <cc:License rdf:about="http://web.resource.org/cc/PublicDomain">
        <cc:permits rdf:resource="http://web.resource.org/cc/Reproduction"/>
        <cc:permits rdf:resource="http://web.resource.org/cc/Distribution"/>
        <cc:permits rdf:resource="http://web.resource.org/cc/DerivativeWorks"/>
      </cc:License>
    </rdf:RDF>
  </metadata>
  <sodipodi:namedview bordercolor="#666666" borderopacity="1.0" id="base" inkscape:current-layer="svg2103" inkscape:cx="305.25953" inkscape:cy="417.84947" inkscape:pageopacity="0.0" inkscape:pageshadow="2" inkscape:window-height="543" inkscape:window-width="640" inkscape:window-x="0" inkscape:window-y="26" inkscape:zoom="0.43415836" pagecolor="#ffffff"/>
  <defs id="defs2105">
    <marker id="ArrowEnd" markerHeight="3" markerUnits="strokeWidth" markerWidth="4" orient="auto" refX="0" refY="5" viewBox="0 0 10 10">
      <path d="M 0 0 L 10 5 L 0 10 z" id="path2108"/>
    </marker>
    <marker id="ArrowStart" markerHeight="3" markerUnits="strokeWidth" markerWidth="4" orient="auto" refX="10" refY="5" viewBox="0 0 10 10">
      <path d="M 10 0 L 0 5 L 10 10 z" id="path2111"/>
    </marker>
  </defs>
  <g id="g2113">
    <path d="M 179.237 0C 138.982 0 83.388 11.502 60.384 21.087C 37.38 30.672 22.044 40.257 17.252 64.219L 0 197.06L 0 380.105L 29.712 380.105L 29.712 408.81C 29.712 443.81 80.93 443.81 80.93 408.81L 80.93 380.105L 175.487 380.105L 175.787 380.105L 274.094 380.105L 274.094 408.81C 274.094 443.81 325.312 443.81 325.312 408.81L 325.312 380.105L 355.024 380.105L 355.024 197.06L 337.772 64.219C 332.98 40.257 317.644 30.672 294.64 21.087C 271.636 11.502 216.042 0 175.787 0" id="path2115" style="stroke:none; fill:#000000"/>
    <g id="g2117">
      <g id="g2119">
        <g id="g2121">
          <path d="M 299.682 322.723C 313.25 322.723 324.25 311.721 324.25 298.153C 324.25 284.585 313.25 273.583 299.682 273.583C 286.114 273.583 275.113 284.585 275.113 298.153C 275.113 311.721 286.114 322.723 299.682 322.723z" id="path2123" style="stroke:none; fill:#ffffff"/>
          <path d="M 299.682 298.153" id="path2125" style="stroke:none; fill:#ffffff"/>
        </g>
        <g id="g2127">
          <path d="M 55.342 322.723C 41.774 322.723 30.774 311.721 30.774 298.153C 30.774 284.585 41.774 273.583 55.342 273.583C 68.91 273.583 79.911 284.585 79.911 298.153C 79.911 311.721 68.91 322.723 55.342 322.723z" id="path2129" style="stroke:none; fill:#ffffff"/>
          <path d="M 55.342 298.153" id="path2131" style="stroke:none; fill:#ffffff"/>
        </g>
      </g>
      <path d="M 175.612 55.113L 104.476 55.113C 90.098 55.113 90.098 33.547 104.476 33.547L 175.787 33.547L 250.548 33.547C 264.926 33.547 264.926 55.113 250.548 55.113L 175.612 55.113z" id="path2133" style="stroke:none; fill:#ffffff"/>
      <path d="M 175.612 76.887L 65.715 76.887C 50.527 76.887 46.559 84.604 44.715 96.31L 31.287 192.658C 30.035 201.893 32.706 211.06 45.465 211.06L 175.787 211.06L 309.559 211.06C 322.318 211.06 324.989 201.893 323.737 192.658L 310.309 96.31C 308.465 84.604 304.497 76.887 289.309 76.887L 175.612 76.887z" id="path2135" style="stroke:none; fill:#ffffff"/>
    </g>
  </g>
</svg>
