<?xml version="1.0" encoding="UTF-8" standalone="no"?>
<!-- Created with Inkscape (http://www.inkscape.org/) -->
<svg
   xmlns:dc="http://purl.org/dc/elements/1.1/"
   xmlns:cc="http://creativecommons.org/ns#"
   xmlns:rdf="http://www.w3.org/1999/02/22-rdf-syntax-ns#"
   xmlns:svg="http://www.w3.org/2000/svg"
   xmlns="http://www.w3.org/2000/svg"
   xmlns:xlink="http://www.w3.org/1999/xlink"
   xmlns:sodipodi="http://sodipodi.sourceforge.net/DTD/sodipodi-0.dtd"
   xmlns:inkscape="http://www.inkscape.org/namespaces/inkscape"
   width="37.354946"
   height="38.520622"
   id="svg2"
   sodipodi:version="0.32"
   inkscape:version="0.46"
   sodipodi:docname="marketplace.svg"
   inkscape:output_extension="org.inkscape.output.svg.inkscape"
   version="1.0">
  <defs
     id="defs4">
    <linearGradient
       id="linearGradient3984">
      <stop
         style="stop-color:#eeeeee;stop-opacity:1;"
         offset="0"
         id="stop3986" />
      <stop
         style="stop-color:#464646;stop-opacity:1;"
         offset="1"
         id="stop3988" />
    </linearGradient>
    <linearGradient
       id="linearGradient3696">
      <stop
         style="stop-color:#058a0d;stop-opacity:1;"
         offset="0"
         id="stop3698" />
      <stop
         style="stop-color:#ffffff;stop-opacity:1;"
         offset="1"
         id="stop3700" />
    </linearGradient>
    <inkscape:perspective
       sodipodi:type="inkscape:persp3d"
       inkscape:vp_x="0 : 526.18109 : 1"
       inkscape:vp_y="0 : 1000 : 0"
       inkscape:vp_z="744.09448 : 526.18109 : 1"
       inkscape:persp3d-origin="372.04724 : 350.78739 : 1"
       id="perspective10" />
    <linearGradient
       inkscape:collect="always"
       xlink:href="#linearGradient3696"
       id="linearGradient3706"
       x1="13.796209"
       y1="18.636694"
       x2="16.426014"
       y2="22.95882"
       gradientUnits="userSpaceOnUse" />
    <linearGradient
       inkscape:collect="always"
       xlink:href="#linearGradient3984"
       id="linearGradient3990"
       x1="28.949289"
       y1="13.551576"
       x2="29.502605"
       y2="22.021078"
       gradientUnits="userSpaceOnUse" />
  </defs>
  <sodipodi:namedview
     id="base"
     pagecolor="#ffffff"
     bordercolor="#666666"
     borderopacity="1.0"
     inkscape:pageopacity="0.0"
     inkscape:pageshadow="2"
     inkscape:zoom="8.9041905"
     inkscape:cx="20.49826"
     inkscape:cy="24.136912"
     inkscape:document-units="px"
     inkscape:current-layer="svg2"
     showgrid="true"
     inkscape:snap-global="false"
     inkscape:window-width="1218"
     inkscape:window-height="721"
     inkscape:window-x="10"
     inkscape:window-y="36">
    <inkscape:grid
       type="xygrid"
       id="grid2383"
       visible="true"
       enabled="true" />
  </sodipodi:namedview>
  <metadata
     id="metadata7">
    <rdf:RDF>
      <cc:Work
         rdf:about="">
        <dc:format>image/svg+xml</dc:format>
        <dc:type
           rdf:resource="http://purl.org/dc/dcmitype/StillImage" />
      </cc:Work>
    </rdf:RDF>
  </metadata>
  <g
     inkscape:groupmode="layer"
     id="layer2"
     transform="translate(-5.9660515,-3.4331123)">
    <path
       style="fill:url(#linearGradient3990);fill-opacity:1;fill-rule:evenodd;stroke:#000000;stroke-width:0.84390461;stroke-linecap:round;stroke-linejoin:round;stroke-miterlimit:4;stroke-dasharray:none;stroke-opacity:1"
       d="M 40.690854,20.519909 C 40.690854,20.519909 41.607095,18.35452 40.246267,17.5214 C 39.772758,17.231511 33.519177,13.991294 33.519177,13.991294 C 33.519177,13.991294 32.963976,13.880254 31.742535,14.213374 C 30.521095,14.546495 7.1451095,20.0888 7.1451095,20.0888 C 7.1451095,20.0888 6.5622029,20.644001 6.673243,21.643363 C 6.7842832,22.642723 8.9595833,28.480373 8.9595833,28.480373"
       id="path3170"
       sodipodi:nodetypes="cscscsc" />
    <path
       style="fill:none;fill-rule:evenodd;stroke:#000000;stroke-width:0.84390461;stroke-linecap:round;stroke-linejoin:round;stroke-miterlimit:4;stroke-dasharray:none;stroke-opacity:1"
       d="M 26.263643,15.640633 C 26.514937,11.787443 25.844818,8.6043728 24.588343,7.1803681 C 23.331868,5.7563634 18.557264,5.9238937 16.965728,8.5206077 C 15.836094,10.363694 15.374194,12.960153 15.793019,17.818523"
       id="path3174"
       sodipodi:nodetypes="csss" />
    <path
       style="fill:none;fill-rule:evenodd;stroke:#000000;stroke-width:0.84390461;stroke-linecap:round;stroke-linejoin:round;stroke-miterlimit:4;stroke-dasharray:none;stroke-opacity:1"
       d="M 32.973003,20.902803 C 33.224297,17.049614 32.554178,13.866544 31.297704,12.442539 C 30.041228,11.018534 25.266624,11.186065 23.675088,13.782778 C 22.545455,15.625865 22.000221,18.888991 22.419046,23.74736"
       id="path3176"
       sodipodi:nodetypes="csss" />
    <path
       style="fill:none;fill-rule:evenodd;stroke:#000000;stroke-width:0.84390461;stroke-linecap:round;stroke-linejoin:miter;stroke-miterlimit:4;stroke-dasharray:none;stroke-opacity:1"
       d="M 33.216137,15.054277 L 32.797312,31.555981 L 32.797312,31.555981"
       id="path3178" />
    <path
       style="fill:#000000;fill-opacity:1;fill-rule:evenodd;stroke:#000000;stroke-width:0.08439047px;stroke-linecap:butt;stroke-linejoin:miter;stroke-opacity:1"
       d="M 39.883927,33.108198 C 40.217048,31.664677 41.440429,19.631376 41.440429,19.631376 C 41.440429,19.631376 41.609897,18.632015 40.610537,18.520975 C 39.611176,18.409934 16.933663,25.202895 15.379102,24.980815 C 13.82454,24.758735 8.173254,21.336009 7.6180534,21.002889 C 7.0628536,20.669768 6.0634924,20.225608 6.2855727,21.447049 C 6.5076529,22.66849 7.9803889,37.612109 7.9803889,37.612109 C 8.2204123,39.772322 12.975034,41.98567 14.284339,41.888124 C 15.728124,41.780559 38.746252,35.913415 38.746252,35.913415 C 38.746252,35.913415 39.772887,34.995879 39.883927,33.108198 z"
       id="path3168"
       sodipodi:nodetypes="ccsssscscc" />
    <path
       style="fill:none;fill-rule:evenodd;stroke:#ffffff;stroke-width:0.84390461;stroke-linecap:round;stroke-linejoin:miter;stroke-miterlimit:4;stroke-dasharray:none;stroke-opacity:1"
       d="M 15.374194,26.613846 L 14.452779,41.105189"
       id="path3172"
       sodipodi:nodetypes="cc" />
  </g>
  <g
     inkscape:groupmode="layer"
     id="layer3"
     transform="translate(-5.9660515,-3.4331123)">
    <path
       style="fill:#ef720a;fill-opacity:1;fill-rule:evenodd;stroke:#000000;stroke-width:0.69999999;stroke-linecap:round;stroke-linejoin:round;marker-start:none;stroke-miterlimit:4;stroke-dasharray:none;stroke-opacity:1"
       d="M 34.583334,20.25 C 36.003909,18.220607 37.141766,16.5498 38.25,14.333333 C 39.143658,12.546017 40.055054,11.009928 41.25,9.4166667 C 41.890347,8.5628705 42.360919,7.2781622 42.833333,6.3333333 C 43.123783,5.7524333 42.913576,4.6635757 42.583333,4.3333333 C 42.225826,3.975826 41.447314,4.0569903 41,3.8333333 C 40.464687,3.5656769 39.722167,4.4445 39.5,4.6666667 C 38.999759,5.166908 38.493928,5.7337208 37.916667,6.1666667 C 36.833267,6.9792167 35.97713,8.5027161 35.166667,9.5833333 C 34.368099,10.64809 33.401976,11.240172 32.666667,12.416667 C 31.924702,13.60381 30.635823,14.687012 29.75,15.75 C 29.547244,15.993308 29.361111,16.25 29.166667,16.5 C 28.296399,17.618915 27.595668,19.070999 26.583333,20.083333 C 25.857897,20.80877 25.560719,21.919043 25,22.666667"
       id="path3169"
       sodipodi:nodetypes="csssssssssssss" />
    <path
       style="fill:none;fill-rule:evenodd;stroke:#000000;stroke-width:1px;stroke-linecap:round;stroke-linejoin:miter;stroke-opacity:1"
       d="M 41.5,6.8333333 C 41.275017,7.283299 40.467095,6.8131619 40,7 C 39.5573,7.1770799 39.104119,7.2708494 38.666667,7.4166667"
       id="path3171" />
    <path
       style="fill:none;fill-rule:evenodd;stroke:#000000;stroke-width:1px;stroke-linecap:round;stroke-linejoin:miter;stroke-opacity:1"
       d="M 39.583333,9.9166667 C 39.533003,9.9367989 38.58729,10.25 38.083333,10.25 C 37.221108,10.25 36.376425,10.574145 35.666667,11 C 35.632981,11.020211 35.611111,11.055556 35.583333,11.083333"
       id="path3173" />
    <path
       style="fill:none;fill-rule:evenodd;stroke:#000000;stroke-width:1px;stroke-linecap:round;stroke-linejoin:miter;stroke-opacity:1"
       d="M 36.916667,14.166667 C 36.392102,14.481405 35.695075,14.083333 35.083333,14.083333 C 34.222997,14.083333 33.50362,14.297828 32.75,14.75 C 32.412446,14.952533 32.587088,14.912912 32.416667,15.083333"
       id="path3175" />
    <path
       style="fill:none;fill-rule:evenodd;stroke:#000000;stroke-width:1px;stroke-linecap:round;stroke-linejoin:miter;stroke-opacity:1"
       d="M 34.416667,17.75 C 34.369009,17.778595 32.816835,17.833333 32.25,17.833333 C 31.509634,17.833333 30.88309,17.933455 30.25,18.25"
       id="path3177" />
    <path
       style="fill:#058a0d;fill-opacity:1;fill-rule:evenodd;stroke:#000000;stroke-width:0.2;stroke-linecap:butt;stroke-linejoin:miter;stroke-miterlimit:4;stroke-dasharray:none;stroke-opacity:1"
       d="M 13.117454,16.747073 C 12.896973,16.486994 12.295784,15.834584 11.875732,15.632546 C 11.404626,15.405953 10.912697,15.295918 10.416667,15.083333 C 9.8945333,14.859562 9.6018799,14.067137 9,13.916667 C 8.4235443,13.772553 8.0226901,13.375743 7.5,13.166667 C 7.1862387,13.041162 6.8379313,13 6.5,13 C 6.0870536,13 6.1834875,13.76605 6.0833333,14.166667 C 5.9800062,14.579975 6.3504069,14.416667 6.9166667,14.416667 C 7.6618011,14.416667 8.3735638,14.999426 9,15.25 C 9.6498066,15.509923 10.154085,15.737418 10.583333,16.166667 C 11.060384,16.643718 11.950484,17.150363 12.416667,17.5 C 13.229703,18.109777 13.789131,18.798914 14.416667,19.583333"
       id="path3185"
       sodipodi:nodetypes="cssssssssssc" />
    <path
       style="fill:url(#linearGradient3706);fill-opacity:1;fill-rule:evenodd;stroke:#000000;stroke-width:0.2;stroke-linecap:butt;stroke-linejoin:miter;stroke-miterlimit:4;stroke-dasharray:none;stroke-opacity:1"
       d="M 18.497073,24.381082 C 18.188072,23.833 17.674202,23.313069 17.25,22.833333 C 16.908153,22.491487 16.761209,22.152037 16.364527,21.69786 C 16.282808,21.604296 16.055556,21.277778 16,21.166667 C 15.718831,20.604329 15.538047,20.078507 15.166667,19.583333 C 14.754052,19.033181 14.415424,18.414181 14.166667,17.916667 C 13.908386,17.400104 13.582452,16.799187 13.25,16.333333 C 12.838699,15.756991 12.330526,14.574521 12.25,14.166667 C 12.233915,14.085199 11.999771,13.688908 11.969477,13.620171 C 11.751269,13.125049 11.50516,12.869898 11.245609,12.398143 C 10.961391,11.881553 10.891776,11.72511 10.5,11.333333 C 10.201515,11.034848 10.330557,10.58611 9.8333333,11.083333 C 9.5112218,11.405445 9.1149882,11.525839 8.8333333,11.666667 C 8.5500545,11.808306 9.3398519,12.109408 9.4166667,12.416667 C 9.4829037,12.681615 9.783738,13.067476 9.9166667,13.333333 C 10.074789,13.649579 10.251422,13.83902 10.333333,14.166667 C 10.429207,14.550163 10.526182,14.802363 10.666667,15.083333 C 10.848406,15.446813 10.959375,15.585416 11.166667,16 C 11.31705,16.300766 11.617574,16.651814 11.75,16.916667 C 11.937974,17.292614 12.130262,17.618127 12.416667,18 C 12.755997,18.45244 13.080193,18.74372 13.333333,19.25 C 13.589785,19.762903 13.908769,20.35058 14.333333,20.916667 C 14.646711,21.334504 14.952528,21.821722 15.166667,22.25 C 15.427596,22.771859 15.768263,23.346475 15.949324,23.649606 C 16.159628,24.001696 16.435993,24.444387 16.670554,24.766556"
       id="path3179"
       sodipodi:nodetypes="ccsssssssssssssssssssssss" />
    <path
       style="fill:#058a0d;fill-opacity:1;fill-rule:evenodd;stroke:#000000;stroke-width:0.2;stroke-linecap:butt;stroke-linejoin:miter;stroke-miterlimit:4;stroke-dasharray:none;stroke-opacity:1"
       d="M 12.473306,16.832837 C 12.427983,15.929147 12.666667,14.181461 12.666667,13.597466 C 12.666667,13.069689 12.666667,12.527778 12.666667,12 C 12.666667,11.506272 12.833333,10.993689 12.833333,10.5 C 12.833333,9.9797263 13.120325,9.8796748 13.25,9.75 C 13.512055,9.487945 14.015545,9.809327 14.333333,10 C 14.732617,10.23957 13.916667,10.867693 13.916667,11.333333 C 13.916667,12.146599 13.85786,12.901894 13.666667,13.666667 C 13.467018,14.465262 13.583333,15.422573 13.583333,16.25 C 13.583333,16.913006 13.518872,17.3877 13.720055,18.111653"
       id="path3183"
       sodipodi:nodetypes="csssssssss" />
  </g>
</svg>
