<?xml version="1.0" encoding="UTF-8" standalone="no"?>
<svg height="471.664" id="svg2217" inkscape:version="0.41" sodipodi:docbase="/datas/Projs/Cliparts Stocker/tmp/AIGA" sodipodi:docname="AIGA_Rail_Transportation.svg" sodipodi:version="0.32" width="313.622" xmlns="http://www.w3.org/2000/svg" xmlns:cc="http://web.resource.org/cc/" xmlns:dc="http://purl.org/dc/elements/1.1/" xmlns:inkscape="http://www.inkscape.org/namespaces/inkscape" xmlns:rdf="http://www.w3.org/1999/02/22-rdf-syntax-ns#" xmlns:sodipodi="http://inkscape.sourceforge.net/DTD/sodipodi-0.dtd" xmlns:svg="http://www.w3.org/2000/svg">
  <metadata>
    <rdf:RDF xmlns:cc="http://web.resource.org/cc/" xmlns:dc="http://purl.org/dc/elements/1.1/" xmlns:rdf="http://www.w3.org/1999/02/22-rdf-syntax-ns#">
      <cc:Work rdf:about="">
        <dc:title>AIGA_Symbol_Signs</dc:title>
        <dc:description>EPS converted from  http://aiga.org</dc:description>
        <dc:subject>
          <rdf:Bag>
            <rdf:li>symbol</rdf:li>
            <rdf:li>mapsym</rdf:li>
          </rdf:Bag>
        </dc:subject>
        <dc:publisher>
          <cc:Agent rdf:about="http://www.openclipart.org/">
            <dc:title>Open Clip Art Library</dc:title>
          </cc:Agent>
        </dc:publisher>
        <dc:creator>
          <cc:Agent>
            <dc:title>Jean-Victor Balin</dc:title>
          </cc:Agent>
        </dc:creator>
        <dc:rights>
          <cc:Agent>
            <dc:title>Jean-Victor Balin</dc:title>
          </cc:Agent>
        </dc:rights>
        <dc:date></dc:date>
        <dc:format>image/svg+xml</dc:format>
        <dc:type rdf:resource="http://purl.org/dc/dcmitype/StillImage"/>
        <cc:license rdf:resource="http://web.resource.org/cc/PublicDomain"/>
        <dc:language>en</dc:language>
      </cc:Work>
      <cc:License rdf:about="http://web.resource.org/cc/PublicDomain">
        <cc:permits rdf:resource="http://web.resource.org/cc/Reproduction"/>
        <cc:permits rdf:resource="http://web.resource.org/cc/Distribution"/>
        <cc:permits rdf:resource="http://web.resource.org/cc/DerivativeWorks"/>
      </cc:License>
    </rdf:RDF>
  </metadata>
  <sodipodi:namedview bordercolor="#666666" borderopacity="1.0" id="base" inkscape:current-layer="svg2217" inkscape:cx="305.25953" inkscape:cy="417.84947" inkscape:pageopacity="0.0" inkscape:pageshadow="2" inkscape:window-height="543" inkscape:window-width="640" inkscape:window-x="0" inkscape:window-y="26" inkscape:zoom="0.43415836" pagecolor="#ffffff"/>
  <defs id="defs2219">
    <marker id="ArrowEnd" markerHeight="3" markerUnits="strokeWidth" markerWidth="4" orient="auto" refX="0" refY="5" viewBox="0 0 10 10">
      <path d="M 0 0 L 10 5 L 0 10 z" id="path2222"/>
    </marker>
    <marker id="ArrowStart" markerHeight="3" markerUnits="strokeWidth" markerWidth="4" orient="auto" refX="10" refY="5" viewBox="0 0 10 10">
      <path d="M 10 0 L 0 5 L 10 10 z" id="path2225"/>
    </marker>
  </defs>
  <g id="g2227">
    <path d="M 156.811 399.297L 156.871 399.297L 224.443 399.297L 273.806 471.664L 313.622 471.664L 244.61 368.146C 267.622 364.438 290.529 340.438 290.529 311.188L 290.529 97.33C 290.529 67.138 265.129 39.424 230.622 39.424L 157.092 39.376L 157.095 39.376L 83 39.424C 48.493 39.424 23.093 67.138 23.093 97.33L 23.093 311.188C 23.093 340.438 46 364.438 69.012 368.146L 0 471.664L 39.816 471.664L 89.179 399.297L 156.751 399.297L 156.811 399.297z" id="path2229" style="stroke:none; fill:#000000"/>
    <g id="g2231">
      <path d="M 134.768 33.184C 125.603 33.184 118.177 25.756 118.177 16.591C 118.177 7.428 125.603 0 134.768 0C 143.931 0 151.359 7.428 151.359 16.591C 151.359 25.756 143.931 33.184 134.768 33.184z" id="path2233" style="stroke:none; fill:#000000"/>
      <path d="M 178.854 33.184C 188.019 33.184 195.445 25.756 195.445 16.591C 195.445 7.428 188.019 0 178.854 0C 169.691 0 162.263 7.428 162.263 16.591C 162.263 25.756 169.691 33.184 178.854 33.184z" id="path2235" style="stroke:none; fill:#000000"/>
      <path d="M 231.263 336.951C 245.768 336.951 257.526 325.192 257.526 310.688C 257.526 296.183 245.768 284.425 231.263 284.425C 216.758 284.425 205 296.183 205 310.688C 205 325.192 216.758 336.951 231.263 336.951z" id="path2237" style="stroke:none; fill:#ffffff"/>
      <path d="M 156.811 198.014L 156.871 198.014L 228.622 198.014C 245.122 198.014 258.622 186.688 258.47 168.188L 258.47 129.688C 258.47 113.688 248.122 99.726 228.622 99.726L 156.871 99.726L 156.751 99.726L 85 99.726C 65.5 99.726 55.152 113.688 55.152 129.688L 55.152 168.188C 55 186.688 68.5 198.014 85 198.014L 156.751 198.014L 156.811 198.014z" id="path2239" style="stroke:none; fill:#ffffff"/>
      <path d="M 156.811 88.201L 156.871 88.201L 185.872 88.201C 191.372 88.201 195.688 83.688 195.688 78.438L 195.688 61.438C 195.688 56.188 191.122 51.778 185.872 51.778L 156.871 51.778L 156.811 51.778L 156.751 51.778L 127.75 51.778C 122.5 51.778 117.934 56.188 117.934 61.438L 117.934 78.438C 117.934 83.688 122.25 88.201 127.75 88.201L 156.751 88.201L 156.811 88.201z" id="path2241" style="stroke:none; fill:#ffffff"/>
      <path d="M 81.75 336.951C 67.245 336.951 55.487 325.192 55.487 310.688C 55.487 296.183 67.245 284.425 81.75 284.425C 96.255 284.425 108.013 296.183 108.013 310.688C 108.013 325.192 96.255 336.951 81.75 336.951z" id="path2243" style="stroke:none; fill:#ffffff"/>
    </g>
  </g>
</svg>
