<?xml version="1.0" encoding="UTF-8" standalone="no"?>
<!-- Generator: Adobe Illustrator 13.0.2, SVG Export Plug-In . SVG Version: 6.00 Build 14948)  -->
<svg
   xmlns:dc="http://purl.org/dc/elements/1.1/"
   xmlns:cc="http://creativecommons.org/ns#"
   xmlns:rdf="http://www.w3.org/1999/02/22-rdf-syntax-ns#"
   xmlns:svg="http://www.w3.org/2000/svg"
   xmlns="http://www.w3.org/2000/svg"
   xmlns:sodipodi="http://sodipodi.sourceforge.net/DTD/sodipodi-0.dtd"
   xmlns:inkscape="http://www.inkscape.org/namespaces/inkscape"
   version="1.2"
   baseProfile="tiny"
   id="Layer_1"
   x="0px"
   y="0px"
   width="163.335px"
   height="415.185px"
   viewBox="0 0 163.335 415.185"
   xml:space="preserve"
   sodipodi:version="0.32"
   inkscape:version="0.46"
   sodipodi:docname="traffic_light.svg"
   inkscape:output_extension="org.inkscape.output.svg.inkscape"><metadata
   id="metadata14"><rdf:RDF><cc:Work
       rdf:about=""><dc:format>image/svg+xml</dc:format><dc:type
         rdf:resource="http://purl.org/dc/dcmitype/StillImage" /><cc:license
         rdf:resource="http://creativecommons.org/licenses/publicdomain/" /></cc:Work><cc:License
       rdf:about="http://creativecommons.org/licenses/publicdomain/"><cc:permits
         rdf:resource="http://creativecommons.org/ns#Reproduction" /><cc:permits
         rdf:resource="http://creativecommons.org/ns#Distribution" /><cc:permits
         rdf:resource="http://creativecommons.org/ns#DerivativeWorks" /></cc:License></rdf:RDF></metadata><defs
   id="defs12"><inkscape:perspective
     sodipodi:type="inkscape:persp3d"
     inkscape:vp_x="0 : 207.5925 : 1"
     inkscape:vp_y="0 : 1000 : 0"
     inkscape:vp_z="163.33501 : 207.5925 : 1"
     inkscape:persp3d-origin="81.667503 : 138.395 : 1"
     id="perspective16" /></defs><sodipodi:namedview
   inkscape:window-height="713"
   inkscape:window-width="760"
   inkscape:pageshadow="2"
   inkscape:pageopacity="0.0"
   guidetolerance="10.0"
   gridtolerance="10.0"
   objecttolerance="10.0"
   borderopacity="1.0"
   bordercolor="#666666"
   pagecolor="#ffffff"
   id="base"
   showgrid="false"
   inkscape:zoom="1.189831"
   inkscape:cx="132.09483"
   inkscape:cy="207.5925"
   inkscape:window-x="0"
   inkscape:window-y="0"
   inkscape:current-layer="Layer_1" />
<path
   d="M163.314,81.666v251.962l0.02-0.11l0,0c0.013,22.472-9.18,43.048-23.919,57.747l0,0  c-14.691,14.731-35.248,23.921-57.702,23.921l0,0c-0.015,0-0.031,0-0.046,0l0,0c-22.472,0.012-43.047-9.182-57.747-23.921l0,0  C9.181,376.565-0.011,355.991,0,333.517l0,0l0.002,0.11l0,0V81.666l0,0.001l0,0C-0.011,59.194,9.18,38.62,23.921,23.92l0,0  C38.621,9.179,59.195-0.012,81.668,0l0,0c22.473-0.012,43.047,9.179,57.747,23.92l0,0c14.739,14.7,23.932,35.274,23.92,57.747l0,0  h-0.002L163.314,81.666z"
   id="path3" />
<circle
   fill="#FFFFFF"
   cx="81.668"
   cy="81.667"
   r="56.667"
   id="circle5" />
<circle
   fill="#FFFFFF"
   cx="81.668"
   cy="207.592"
   r="56.667"
   id="circle7" />
<circle
   fill="#FFFFFF"
   cx="81.668"
   cy="333.518"
   r="56.667"
   id="circle9" />
</svg>